<svg id="Layer_1" data-name="Layer 1" xmlns="http://www.w3.org/2000/svg" viewBox="0 0 1400 1022.87"><defs><style>.cls-1{fill:#578ecb;opacity:0.1;isolation:isolate;}.cls-2,.cls-3,.cls-4,.cls-5,.cls-6,.cls-8{fill:#efb7b9;stroke:#fff;stroke-miterlimit:10;}.cls-2{stroke-width:1.16px;}.cls-3{stroke-width:1.16px;}.cls-4{stroke-width:1.02px;}.cls-5{stroke-width:1.16px;}.cls-6{stroke-width:1.24px;}.cls-7{fill:#4194f2;}.cls-8{stroke-width:1.3px;}</style></defs><title>404</title><path class="cls-1" d="M838.84,403.39C749.09,400.28,663.61,371.3,582,339.6S419.51,272.79,331.91,256c-56.34-10.8-120.79-12.34-166.18,17.84C122,303,107.92,353.08,100.33,399.63c-5.71,35-9.07,71.91,6.58,104.7,10.87,22.77,30.14,41.91,43.49,63.73,46.41,75.88,13.6,169.46-36.68,243.55-23.58,34.76-51,67.95-69.18,104.91S17.92,996,33.85,1033.77c15.78,37.45,53.41,65.51,94.16,85.27,82.78,40.15,180.28,51.63,275.43,58.15,210.55,14.4,422.21,8.17,633.32,1.92,78.13-2.31,156.59-4.65,233.45-16.73,42.68-6.71,86.74-17.36,117.73-43.07,39.33-32.63,49.08-87.88,22.72-128.79-44.21-68.65-166.41-85.69-197.35-159.34-17-40.55.46-85.7,25.18-123.3,53-80.67,141.91-151.43,146.58-243.62,3.22-63.32-39.5-126.74-105.57-156.71-69.24-31.41-165.27-27.46-216.34,24.53C1010.54,385.56,918.09,406.15,838.84,403.39Z" transform="translate(-25.43 -248.91)"/><path class="cls-2" d="M975,739.35c5.75-36.66,24.19-304.41,26.34-340.18,1.91-31.75,38.95-74.57,64.05-32.46,8.51,14.27,4.44,57.18,6.35,82.5,2,27.45-4.69,211.64.69,266.68" transform="translate(-25.43 -248.91)"/><path class="cls-3" d="M1120.88,735.27c16-33.48,110.34-284.75,122.64-318.39,10.92-29.89,58.67-60.31,70.69-12.76,4.07,16.11-12.1,56.05-17.54,80.86-5.89,26.89-65.08,201.44-75.68,255.72" transform="translate(-25.43 -248.91)"/><path class="cls-4" d="M1196,773.22c15.66-28.36,110.72-242.55,123.17-271.25,11-25.49,54.21-49.57,62.25-7.51,2.73,14.25-13.41,48.24-19.4,69.59-6.52,23.13-67,172.25-79,219" transform="translate(-25.43 -248.91)"/><path class="cls-5" d="M1060.21,681.4c10.72-34.32,65.28-288.51,72.26-322.5,6.18-30.19,49.24-65.82,68.87-21.72,6.66,14.95-3.18,55.52-4.68,80.09-1.62,26.64-33.17,202.38-35.14,256" transform="translate(-25.43 -248.91)"/><path class="cls-6" d="M1075,668.49c-35.19.71-94.11,22.62-112.3,54.31-17.71,30.86,7.33,80.4,13,113.49,7,40.94-10.17,68.72-25.26,105.6l-6.44,20.35L1160,1017.37s6.12-33.87,24.37-56.11c37.42-37,70.66-85.35,90.4-134.18,0,0,30.53-80.21,24.56-115.94" transform="translate(-25.43 -248.91)"/><path class="cls-2" d="M525.57,736.87c-6.27-36.58-28.56-304-31.22-339.76-2.36-31.73-40-74-64.51-31.55-8.3,14.4-3.62,57.24-5.16,82.59-1.66,27.47,7.73,211.55,3.13,266.66" transform="translate(-25.43 -248.91)"/><path class="cls-3" d="M379.63,734.88c-16.47-33.25-114.4-283.13-127.19-316.6-11.34-29.72-59.53-59.45-70.86-11.74-3.84,16.16,12.9,55.88,18.7,80.6,6.27,26.8,68,200.49,79.33,254.61" transform="translate(-25.43 -248.91)"/><path class="cls-4" d="M305.08,773.91C289,745.78,190.89,533,178,504.46c-11.41-25.33-54.93-48.79-62.37-6.63-2.51,14.29,14.11,48.05,20.41,69.32,6.84,23,69.48,171.27,82.17,217.86" transform="translate(-25.43 -248.91)"/><path class="cls-5" d="M439.53,680.15C428.32,646,370.12,392.6,362.65,358.72c-6.62-30.1-50.18-65.11-69.18-20.73-6.44,15,4,55.47,5.84,80,2,26.62,36.06,201.88,38.8,255.47" transform="translate(-25.43 -248.91)"/><path class="cls-6" d="M424.59,667.46c35.2.19,94.43,21.26,113.07,52.69,18.16,30.59-6.17,80.49-11.33,113.66-6.4,41,11.16,68.56,26.77,105.23l6.74,20.25-215.27,58.22S338,983.73,319.4,961.76c-37.95-36.44-71.88-84.33-92.32-132.86,0,0-31.68-79.77-26.22-115.59" transform="translate(-25.43 -248.91)"/><path class="cls-7" d="M977.67,689.67c17.63-10.47,35.9-10.72,60.4-12.79,4.12-.34,7.6-.42,10.43-.42,98.26-.25,161.77,85.3,169.37,95.87.78,6,7.74,18.38,16.83,19,49,3.27,85.56,41.52,93.65,87.42,13.47,76.41,28.63,153.08,22.14,231.6-2.88,35-6.87,69.6-20.47,102.34l-4.77,2c-1.62-4.44-5.66-9.67-4.51-13.22,21.53-66.36,20.28-134.2,12.91-202.2-3.3-30.46-7.55-61.19-15.65-90.62-6.25-22.69-16.25-45.61-29.81-64.73-21.47-30.28-55.08-38.19-86.74-25.82-29.27,11.44-47.14,43.27-45.85,79.26,1.81,50.48,18.8,96.71,38.38,142.29,23.81,55.43,52.42,108.11,94.64,151.89,11.53,12,26.59,20.7,40.73,29.82,5.82,3.76,10.71,2.1,17.66-3.91,10-8.65,24.88-15,38.07-15.77s10.92,15.48,13.09,24.74c.74,3.2-5.6,10.91-9.84,12-32,7.9-61.79,1.28-87.86-18.52-29.79-22.62-51.51-52.55-71.08-84-35.7-57.29-61.67-118.91-80.42-183.68-4.38-15.13-12-29.72-13.93-45.09-6.21-49.2,13.32-85.59,57.19-108.35,9.14-4.73,5.91-10.2,5.11-16.28C943.92,536.78,904.89,947.39,766.22,815.21c-.65-5,19.88-15.58,21.82-17.1,9.12,8.1,32.63,19.91,48,14.22,14.81-5.48,37.5-28.74,51-43.26C923,730.23,942.09,710.77,977.67,689.67Z" transform="translate(-25.43 -248.91)"/><path class="cls-7" d="M690,788.63a110.45,110.45,0,0,0,35.75-1.83c29.39-6.76,77.79-45.15,77.79-45.15C857.8,694,918.46,627,911.89,535c-1.78-24.89-20.19-98.28-107.46-132.84-23.43-9.27-75.21-22.94-137.87,9.95C549.9,473.33,575,629.83,656.78,703c1.83,1.64,22.66,20,86.52,61.93a3.57,3.57,0,0,1-.4,6c-5.68,3.26-18.65,6.57-23,9.39-7.68-4.39-169-75.31-164.53-241.28,1-36.64,3.81-66.65,39.07-110.07,54.85-67.55,142-65.81,151.61-65.46,95.25,3.42,175.33,58.29,193.4,167.92,10.57,64.06-22.84,120-34.66,140.45-18.68,32.27-39.55,51.71-61.34,72-34.51,32.14-77.24,58.87-104.8,68.77-23.84,8.55-49.92,11.77-73.86,2.34-88-34.67-148.43-115-228.25-104.77-56.5,7.21-87.66,19.44-96,153.33-3.49,56-16.24,84.39-49.41,113.18-30.26,26.26-53.2,23.2-66.7,43.54-7.9,11.91-7.34,19.39-17.67,27.42a46.42,46.42,0,0,1-26.91,9.31c-18.22.24-39.31-11.07-46.5-32.69-7.53-22.6,3.36-47.08,18.77-54.84,40.19-20.26,59,19.49,78.69,11.26,26.24-11,48.08-27.6,57.78-42,24.81-36.73,12.79-65.29,21.47-116.29,6.11-35.89,16.46-106.94,55.38-124.52C526.8,625.12,605.08,779.43,690,788.63Z" transform="translate(-25.43 -248.91)"/><path class="cls-7" d="M270.12,999.45c6.17,45.87-25.1,90-69.32,100.22-48,11.11-95.22-15-110.58-61.08-15.15-45.5,7-95.37,50.82-114.48,42.45-18.5,93.67-2.77,115.48,36.33-10.11,4-19.85,9-30.19,11.47-4.1,1-10.16-2.5-14.22-5.46-24.87-18.15-57.36-14.41-76,9.19-18.47,23.37-15.3,55.29,7.44,75,27.54,23.87,72.25,14.06,84.33-20.72,5.17-14.89,13.45-20.85,26.46-24.67C259.21,1003.82,263.91,1001.76,270.12,999.45Z" transform="translate(-25.43 -248.91)"/><path class="cls-7" d="M1312.73,1238.73c-14.55,13.23-27.87,27.59-48.64,32.29-12.64,2.85-16.4-2.51-18.47-12.54-2-9.61-8.75-22.07,8.11-24,12.77-1.47,25.48-9.77,39.27-.47,4.36,2.94,12.71,0,19.23-.32C1312.39,1235.36,1312.56,1237.05,1312.73,1238.73Z" transform="translate(-25.43 -248.91)"/><path class="cls-8" d="M400.06,857.24c5.06,8.76-13.92-46-14.7-61.69-1.25-25.51-.19-36,5.58-59.09-25.3-7.84-48.33-.31-74.56-10.59-25.41-9.94-50.05-29-54.79-57.18-6.42-38.1,32.89-19.86,55.61-14.56,29.34,6.87,56.17,3.75,85.63,1.89,62.31-3.92,129.69-9.93,138.3,68.47,4.07,37.18-11.27,73.52-16.93,109.9" transform="translate(-25.43 -248.91)"/><path class="cls-8" d="M1102.21,857.91c-4.93,8.83,13.27-46.17,13.82-61.9.88-25.53-.32-36-6.43-59,25.19-8.2,48.32-1,74.41-11.66,25.25-10.31,49.62-29.76,54-58,5.88-38.19-33.16-19.39-55.81-13.76-29.24,7.29-56.11,4.55-85.59,3.12-62.36-3-129.82-8.08-137.3,70.44-3.55,37.24,12.32,73.35,18.5,109.65" transform="translate(-25.43 -248.91)"/><path d="M850.85,904.19" transform="translate(-25.43 -248.91)"/></svg>