<svg id="Layer_1" data-name="Layer 1" xmlns="http://www.w3.org/2000/svg" viewBox="0 0 1009.52 789.91"><defs><style>.cls-1,.cls-10{fill:#4194f2;}.cls-1,.cls-12,.cls-4,.cls-7{opacity:0.1;}.cls-1,.cls-11,.cls-12,.cls-14,.cls-4{isolation:isolate;}.cls-2{fill:url(#linear-gradient);}.cls-3{fill:#efb7b9;}.cls-5{fill:#dce6f2;}.cls-6{fill:#965d7b;}.cls-8{fill:#444053;}.cls-9{fill:#a36468;}.cls-11{opacity:0.05;}.cls-12{fill:#fff;}.cls-13{fill:#a8a8a8;}.cls-14{opacity:0.2;}</style><linearGradient id="linear-gradient" x1="-121.61" y1="-358.4" x2="190.66" y2="-358.4" gradientTransform="translate(664.76 74.86) rotate(180)" gradientUnits="userSpaceOnUse"><stop offset="0" stop-color="gray" stop-opacity="0.25"/><stop offset="0.54" stop-color="gray" stop-opacity="0.12"/><stop offset="1" stop-color="gray" stop-opacity="0.1"/></linearGradient></defs><title>No result found (1)</title><ellipse class="cls-1" cx="655.45" cy="741.31" rx="176.1" ry="33.4"/><path class="cls-1" d="M261.2,60c-36.8-37.5-106.1-40.3-156-17.7-47.6,21.6-78.5,67.3-76.1,113C32.5,221.8,96.5,272.8,134.8,331c17.8,27.1,30.4,59.7,18.2,88.9C130.6,473,42.5,485.3,10.6,534.8c-19,29.5-12,69.3,16.4,92.9,22.4,18.5,54.1,26.2,84.9,31.1,55.4,8.7,112,10.4,168.3,12.1,152.2,4.5,304.9,9,456.7-1.4,68.6-4.7,138.9-13,198.6-41.9,29.4-14.2,56.5-34.5,67.9-61.5,11.5-27.3,5.4-57.9-7.7-84.6s-32.9-50.6-49.9-75.6c-36.3-53.4-59.9-120.9-26.4-175.6,9.6-15.7,23.5-29.5,31.4-45.9,11.3-23.6,8.9-50.2,4.7-75.5C950.1,75.1,939.9,39,908.4,18,875.6-3.8,829.2-2.7,788.5,5.1,725.3,17.2,667,42.5,608.2,65.4s-120.5,43.8-185.2,46C365.8,113.4,299.2,98.5,261.2,60Z" transform="translate(0.05 0.01)"/><path class="cls-2" d="M505,366.8v72.4l29.6,5.6,14.4,2.7,33.3,6.3,36.9-3.7,16.1-1.6,4.9-.5,16-1.7,17.7-1.8v88.7s-2.2,23.2,0,28c1.4,2.9,6.2,7.7,9.6,10.9a63.72,63.72,0,0,1-.8,9.8c-2.4,10.8,8.2,20.9,8.2,20.9a9,9,0,0,1,2.8.8l2.3,53.7s4.1,13,1.9,16.7c-1.9,3.2-4.9,6.3-4.9,8.5-4.3,1.5-16.2,6.1-20,10.2-4.4,4.8-7,1.1-14.9,2.5a5,5,0,0,1-1.2.2c-7.5,1.7-11.5,2.4-13.9,8.5a29.07,29.07,0,0,0-1.2,3.9c-2.2,9.8,12.4,9.7,20.7,13.5s27,0,27,0l7.9-.5,13.2-.8a7.17,7.17,0,0,1-3.7,1.8c.1.4.3.7.4,1.1-4.9,1.7-19.2,7.2-23.8,12-5.2,5.6-8.2,1.3-17.5,2.9-.5.1-.9.2-1.5.3-8.8,2-13.6,2.8-16.4,10a40.31,40.31,0,0,0-1.4,4.6c-2.6,11.6,14.7,11.5,24.4,15.8s31.7,0,31.7,0l9.3-.6c12-.8,32.2-2,39.3-2.6,10.4-.8,7.9-5,7.9-5v-20a2.09,2.09,0,0,0,.6-.4c3.7-3,0-62.6,0-62.6s-9.2-90.8-16.3-94.9-.3-9.1-2.7-15.1,2.4-22.5,2.4-22.5,2.1-19.5,7.2-28.9,4.4-35.3,4.4-35.3,14.3-18.9,18.6-26.2,7-26.5,6-41c-.7-9.8-5.9-24-9.2-32.2,3.9.7,10.9,1.3,14.9-2.2,5.2-4.4-8.4-20.5-11.8-24.4a74.29,74.29,0,0,0,.5-12.5l3.3-30.2s2.1-17.5,5.2-26.8a58.84,58.84,0,0,0,1.8-8.1,64.56,64.56,0,0,0-1.7-25.5,48.77,48.77,0,0,1-1.8-10.8c-.5-9.3-29.4-45.4-36.6-48.7a15.57,15.57,0,0,1-6.7-6,8.78,8.78,0,0,1-.7-2.3,16,16,0,0,0-2.2-5.6c-3.5-8.4-9.7-4.3-9.7-4.3-.1-.2-.2-.5-.3-.7-.7-1.5-1.5-3.1-2.2-4.7a6,6,0,0,0,1.9.6,8.33,8.33,0,0,0,5.1-1.1,4.52,4.52,0,0,0,2.3-2,1.7,1.7,0,0,0,.1-.7c.1-1.9-2.3-3.6-2.8-5.6a4.92,4.92,0,0,1,.2-2.4v.1a11.43,11.43,0,0,0,.7-3.2,2.15,2.15,0,0,0-.2-1.1c-.4-1.2-1.6-2.1-2.3-3.2-1.1-1.6-1-3.5-.9-5.5v.1a17.85,17.85,0,0,0,.2-2.3,8.17,8.17,0,0,0-.5-3.8c-1-2.5-3.6-4.1-5-6.4l-.9-1.8h.2l-.4-8.7a2.38,2.38,0,0,1,2.1.7,3.13,3.13,0,0,1,.5,1c.2.7.4,1.3.6,2l-.1-.1c.2.5.4,1,.6,1.4l.1.2v.1a3.18,3.18,0,0,0,3.1,1.8,18,18,0,0,1-1-4,7.89,7.89,0,0,0,3.4.6l-.2-.3h0l-.6-.9a12,12,0,0,1-1.3-3.6,10.24,10.24,0,0,0-.8-3,5.55,5.55,0,0,0-.6-.8h0v.2a9.87,9.87,0,0,0-2.7-1c-2.2-.8-4-3.6-6.2-5l-.2-1.7c-7.6-14.4-34.4-12.9-34.4-12.9C641,102.4,637,130,637,135.3s-16,12-16,12-5.1,1.3-5.8,3.2h0s-2.2,2.9-.2,5.5a4.89,4.89,0,0,0,1.3,1.2,16,16,0,0,0,6.3,2.3c.5.1,1,.1,1.4.2h1.5c.4,0,.9-.1,1.3-.1h0c.5-.1.9-.2,1.3-.3l.2-.1c.4-.1.7-.2,1-.3l.3-.1,1-.4.2-.1,1.2-.6.1-.1,1-.6.3-.2.9-.6.2-.2c.7-.5,1.4-1.1,2-1.6l.2-.2.8-.7.2-.2c.6-.6,1.2-1.2,1.7-1.8l.1-.2c.2-.2.4-.5.6-.7l.2-.2.6-.7.1-.1h0c.4-.6.8-1.1,1.2-1.6l5.6-3a4.1,4.1,0,0,0-.1,1.1,23.48,23.48,0,0,0-.1,2.6,36.33,36.33,0,0,0,33.9,36l1.5,2.1a102,102,0,0,1,8,13.5l-14.6,17.2,1.8,16.2c-7.8,11.6-9.6,29.1-9.6,42.2,0,3.1.1,6,.2,8.5a230.71,230.71,0,0,0-2.5,24.9l-.4,8-30.4-3.6-36.4,20.4-29-22.5L489.2,318l15.5,23h0l-30.6,20.6ZM720.1,121.6l-2.1.2C718.7,121.8,719.4,121.6,720.1,121.6Z" transform="translate(0.05 0.01)"/><path class="cls-3" d="M612,374c3.4-1,5.4-1.5,5.4-1.5l6.3,13.4-3.8,3.5L592,415.5s-36,7.6-46-6.7C537.8,396.7,594,379.3,612,374Z" transform="translate(0.05 0.01)"/><path class="cls-4" d="M617.5,372.5l6.3,13.4-3.8,3.5c-3.4-4.7-6.8-11.1-8-15.4C615.5,373.1,617.5,372.5,617.5,372.5Z" transform="translate(0.05 0.01)"/><path class="cls-5" d="M670.4,295.3s1.6,22.1,2.3,24.4,3.2,6.2,2.5,11.4-10.2,11-10.2,11-9.2,3.7-13.2,9.8-35.4,13.6-37.8,17.2,10.8,26.9,15.1,25.3,38.5-5.2,38.5-5.2,20.2-8.9,42.1-19.8,16.6-52.9,16.6-52.9a460.93,460.93,0,0,0,5.9-53.8c1.3-28-24.4-39.4-24.4-39.4C659.7,216.6,670.4,295.3,670.4,295.3Z" transform="translate(0.05 0.01)"/><path class="cls-4" d="M722.5,333.6c3.4-12.3-31.8-18.2-31.8-18.2C709.7,320.3,722.5,333.6,722.5,333.6Z" transform="translate(0.05 0.01)"/><path class="cls-4" d="M706,337c3.8-.8-15.6-16.6-15.6-16.6S702.2,337.8,706,337Z" transform="translate(0.05 0.01)"/><path class="cls-4" d="M683.1,335.8c3.2.7-2-9.9-2-9.9S679.9,335,683.1,335.8Z" transform="translate(0.05 0.01)"/><path class="cls-4" d="M544.9,409.9c10,14.3,46,6.7,46,6.7l27.9-26.1,1.6-1.5c2.8,4.1,5.8,7.1,7.4,6.5,4.3-1.5,38.5-5.2,38.5-5.2s20.2-8.9,42.1-19.8S725,317.6,725,317.6a460.93,460.93,0,0,0,5.9-53.8c1.2-28-24.4-39.4-24.4-39.4-48-6.8-37.2,71.9-37.2,71.9s1.6,22.1,2.3,24.4,3.2,6.2,2.5,11.4-10.2,11-10.2,11-9.3,3.7-13.2,9.8-35.4,13.6-37.8,17.2c-.5.8-.3,2.4.3,4.4l-2.1.6C592.7,380.4,536.5,397.8,544.9,409.9Z" transform="translate(0.05 0.01)"/><path class="cls-6" d="M713.2,112.7c-3.6.6-3.5,6.5-2,8.8a6.64,6.64,0,0,0,6.1,2.9c1.4-.1,3.1-.6,4,.5a3.13,3.13,0,0,1,.5,1,20.63,20.63,0,0,0,1.2,3.5,3.2,3.2,0,0,0,3,1.8,18,18,0,0,1-1-4,9.6,9.6,0,0,0,3.3.6,12,12,0,0,1-2-4.8c-.2-1.2-.2-2.7-1.2-3.5a9.61,9.61,0,0,0-2.8-1.1C719.3,117.3,717,112.1,713.2,112.7Z" transform="translate(0.05 0.01)"/><g class="cls-7"><path d="M726.8,124.8a8.3,8.3,0,0,1-.6-2.1c-.2-1.2-.3-2.7-1.2-3.5h0l.3,1.5A11.2,11.2,0,0,0,726.8,124.8Z" transform="translate(0.05 0.01)"/><path d="M722.3,127.7a3.51,3.51,0,0,0,.6,1.4,3.2,3.2,0,0,0,3,1.8,18,18,0,0,1-1-4,7.39,7.39,0,0,0,3.3.5c-.4-.6-.8-1.3-1.2-2a5.92,5.92,0,0,1-3.2-.6,18,18,0,0,0,1,4A2.26,2.26,0,0,1,722.3,127.7Z" transform="translate(0.05 0.01)"/><path d="M710.4,119.7a4.59,4.59,0,0,0,.7,1.6,6.64,6.64,0,0,0,6.1,2.9c1.3-.1,2.8-.5,3.8.2a2.35,2.35,0,0,1-.2-.8,3.13,3.13,0,0,0-.5-1c-.9-1.1-2.6-.6-4.1-.5A6.5,6.5,0,0,1,710.4,119.7Z" transform="translate(0.05 0.01)"/></g><polygon class="cls-5" points="697.55 209.01 679.05 237.81 677.05 219.31 692.35 201.01 697.55 209.01"/><polygon class="cls-4" points="691.35 202.21 692.35 201.01 696.95 208.21 697.55 209.01 695.75 211.81 679.05 237.81 678.95 236.71 677.15 219.31 691.35 202.21"/><path class="cls-3" d="M713.4,149.2s2.3,6.8,5.4,14.7c1.5,3.8,3.2,7.9,4.9,11.5l.3.7c2.7,5.7,5.5,10.2,7.6,10.8,6.2,2-33.2,31.7-33.2,31.7s-1-2.8-2.7-6.9L695,210c-1-2.4-2.3-5.1-3.7-7.9a110.21,110.21,0,0,0-7.8-13.3c-4.3-6.2-9.2-11.2-14.4-12.7C653.4,171.7,713.4,149.2,713.4,149.2Z" transform="translate(0.05 0.01)"/><path class="cls-8" d="M617,152.9s-5,6.6,7.2,8.9,21.4-14.2,21.4-14.2Z" transform="translate(0.05 0.01)"/><path class="cls-9" d="M642.9,705.4c.3-1.3.7-2.6,1.1-3.9,2.3-6,6.3-6.7,13.6-8.4a5,5,0,0,1,1.2-.2c7.7-1.4,10.2,2.3,14.5-2.5,4.5-5,21.1-10.6,21.1-10.6l41.9,10.6v21.4s2.1,3.5-6.5,4.2c-5.9.5-22.7,1.6-32.7,2.2l-7.7.5s-18.3,3.7-26.4,0C655.1,715,640.8,715.1,642.9,705.4Z" transform="translate(0.05 0.01)"/><path class="cls-4" d="M657.6,693.1a5,5,0,0,1,1.2-.2,2.24,2.24,0,0,1,.1,1.8c-.7,1.6-3.4,1.8-3.6,3.5-.2,1.3,1.2,2.1,2.4,2.6a93.93,93.93,0,0,0,13,4.2,17,17,0,0,1,4.5,1.5c.9.5,1.7,1.2,2.6,1.6a10.35,10.35,0,0,0,5.5.9c6.7-.3,13.1-3.5,19.8-3.6a16.3,16.3,0,0,1,8.1,1.8,10.32,10.32,0,0,1,5,6.4c4.3-1.2,8.7-2.3,13-3.5a21,21,0,0,1,6.1-.9c.4,0,.8.1,1.1.1v2.5s2.1,3.5-6.5,4.2c-5.9.5-22.7,1.6-32.7,2.2a20.38,20.38,0,0,0-5.2-2.9c-3-.9-6.2-.1-9.4.1-6,.5-12-1.2-17.6-3.6s-10.8-5.4-16.3-7.9a41.56,41.56,0,0,1-4.7-2.4C646.4,695.4,650.4,694.7,657.6,693.1Z" transform="translate(0.05 0.01)"/><path class="cls-9" d="M647.9,749.8a34.71,34.71,0,0,1,1.3-4.6c2.8-7.1,7.4-7.9,16-9.9.5-.1,1-.2,1.4-.3,9.1-1.6,12,2.7,17.1-2.9,5.3-5.8,24.8-12.5,24.8-12.5l49.3,12.5v25.2s2.5,4.2-7.7,5c-7,.6-26.7,1.8-38.4,2.6l-9,.5s-21.5,4.3-31,0S645.4,761.3,647.9,749.8Z" transform="translate(0.05 0.01)"/><path class="cls-4" d="M665.2,735.4c.5-.1,1-.2,1.4-.3a2.55,2.55,0,0,1,.1,2.1c-.8,1.8-4,2.1-4.2,4.1-.2,1.5,1.5,2.5,2.9,3.1a112.26,112.26,0,0,0,15.2,4.9,25.49,25.49,0,0,1,5.3,1.8c1.1.6,2,1.4,3.1,1.9a12.78,12.78,0,0,0,6.4,1.1c7.9-.4,15.4-4.1,23.3-4.2a18.48,18.48,0,0,1,9.5,2.2,12,12,0,0,1,5.9,7.5l15.3-4.1a24.62,24.62,0,0,1,7.2-1.1c.4,0,.8.1,1.2.1v2.9s2.5,4.2-7.7,5c-7,.6-26.7,1.8-38.4,2.6a26.27,26.27,0,0,0-6.1-3.4c-3.5-1.1-7.3-.2-11,.1-7.1.5-14.1-1.5-20.7-4.2s-12.7-6.3-19.2-9.3a35.52,35.52,0,0,1-5.5-2.8C652,738.1,656.6,737.3,665.2,735.4Z" transform="translate(0.05 0.01)"/><path class="cls-8" d="M721.2,601.8,726,650s-5.1,39-10.3,48-21.2-14.5-22.5-16.7,2.3-5.8,4.5-9.5-1.8-16.5-1.8-16.5l-2.7-62.8Z" transform="translate(0.05 0.01)"/><path class="cls-8" d="M694.6,476.4l2,50.2-9.2,47.5s-11-9.5-13.2-14.2,0-27.8,0-27.8V445.8l7.4-9.9Z" transform="translate(0.05 0.01)"/><path class="cls-4" d="M721.2,601.8,726,650s-5.1,39-10.3,48-21.2-14.5-22.5-16.7,2.3-5.8,4.5-9.5-1.8-16.5-1.8-16.5l-2.7-62.8Z" transform="translate(0.05 0.01)"/><path class="cls-4" d="M694.6,476.4l2,50.2-9.2,47.5s-11-9.5-13.2-14.2,0-27.8,0-27.8V445.8l7.4-9.9Z" transform="translate(0.05 0.01)"/><path class="cls-8" d="M710.3,389.7l54.6-14.3,1-.2s1.1,2.5,2.7,6.4c3.2,8.1,8.3,22.2,9,31.9,1,14.3-1.7,33.3-5.8,40.7s-18.2,26-18.2,26,.7,25.7-4.3,35-7,28.7-7,28.7-4.7,16.3-2.3,22.3-4.3,11,2.7,15,15.9,94,15.9,94,3.6,59,0,62-43.6,9.3-51.9-18c0,0,9-1.3,2.3-10.7s-2.3-58-2.3-58l.3-26s-10-13.3-10-18-6-5.3-6-5.3-10.3-10-8-20.7-.3-98.3-.3-98.3l-8.3-36.3V399.2Z" transform="translate(0.05 0.01)"/><path class="cls-4" d="M713.4,149.1s2.3,6.8,5.4,14.7a34.7,34.7,0,0,1-3.1,7.1,35.74,35.74,0,0,1-31,17.9h-1.1c-4.3-6.2-9.2-11.2-14.4-12.7C653.4,171.7,713.4,149.1,713.4,149.1Z" transform="translate(0.05 0.01)"/><path class="cls-3" d="M648.9,148.5a35.21,35.21,0,0,1,5.5-16.6,35.72,35.72,0,0,1,61.3,1.7,36.4,36.4,0,0,1,4.6,17.6c0,19.7-20.9,32.7-20.9,32.7l-23.3,10.7s-27.3-27.3-27.3-43.5A21.75,21.75,0,0,0,648.9,148.5Z" transform="translate(0.05 0.01)"/><path class="cls-4" d="M693.3,211.8l.6-.6,1.1-1c.5-.5,1.2-1.1,2-1.9,7-6.9,23.9-24.2,26.8-32.8l.3.7c2.7,5.7,5.5,10.2,7.6,10.8,6.2,2-33.2,31.7-33.2,31.7s-1-2.8-2.7-6.9l-16.6,26-.1-1.1C680,226,690.8,214.4,693.3,211.8Z" transform="translate(0.05 0.01)"/><path class="cls-5" d="M667.1,310.4a213.14,213.14,0,0,1,9.9-56,33.88,33.88,0,0,0,1.9-12.6c-.9-11.5,11.6-25.1,14.4-27.9l.6-.6s28.3-26.9,30.2-37.1c0,0,7.6-5.2,10.6,7.8a11.47,11.47,0,0,0,1.1,3.1,14.63,14.63,0,0,0,7.2,7.1c7,3.2,35.2,39,35.8,48.2a55.65,55.65,0,0,0,1.8,10.7,65.32,65.32,0,0,1,1.7,25.3,54.19,54.19,0,0,1-1.7,8c-3,9.2-5,26.5-5,26.5l-3.2,30-1.2,11.5.7.8c3.3,3.8,16.5,19.8,11.5,24.2-3.9,3.4-10.7,2.9-14.6,2.2a18,18,0,0,1-2.9-.7s-3.1.3-7,.8c-5.1.7-11.5,1.8-14.5,3.2-2.4,1.1-17.6,3-33.8,4.8-20.1,2.2-41.7,4.2-41.7,4.2l-.3-10.4-1.8-58.6Z" transform="translate(0.05 0.01)"/><path class="cls-4" d="M718.9,275.2c-5.2-2.8-12.2-19.8-12.2-19.8C704.1,281,724.1,277.9,718.9,275.2Z" transform="translate(0.05 0.01)"/><path class="cls-4" d="M717.4,292.2c0-3-16-5-16-5S717.4,295.2,717.4,292.2Z" transform="translate(0.05 0.01)"/><path class="cls-4" d="M714.4,357.7c-6.5-1.5-29.8-51-29.8-51S720.9,359.2,714.4,357.7Z" transform="translate(0.05 0.01)"/><path class="cls-4" d="M694.9,215.1s28.3-26.9,30.2-37.1c0,0,7.6-5.2,10.6,7.8a11.47,11.47,0,0,0,1.1,3.1L713.6,224l-19.2-8.4Z" transform="translate(0.05 0.01)"/><path class="cls-5" d="M693.9,213.1s28.3-26.9,30.2-37.1c0,0,7.6-5.2,10.6,7.8a11.47,11.47,0,0,0,1.1,3.1L712.6,222l-19.2-8.4Z" transform="translate(0.05 0.01)"/><path class="cls-4" d="M668.3,383.6c9.9-4.5,27.4-10.7,30.1-15.3,3.7-6.2,12.7-10.5,12.7-10.5s9.2-6.3,9.6-11.5-2.4-9-3.1-11.2-3.5-24.2-3.5-24.2-15-78,33.3-73.8c0,0,26.2,10,26.5,38a443.16,443.16,0,0,1-3,54,93.44,93.44,0,0,1,1.3,14,102.85,102.85,0,0,1-.5,12.4c-.8,7.2-2.8,14.5-6.7,20.2a23.6,23.6,0,0,1-6.3,6.3,11.91,11.91,0,0,1-1.5.9c-21.3,12-41,22-41,22s-34,5.5-38.1,7.2c-.9.4-2.3-.4-3.8-1.8v-11l36.1-9.5c-20.1,2.2-41.7,4.2-41.7,4.2Z" transform="translate(0.05 0.01)"/><path class="cls-4" d="M656.7,120.3c4-4.9,9.4-9.4,15.7-9.6,2.4.1,4.9.4,7.3.7a60,60,0,0,0,10.4-.4,7,7,0,0,1,2.5.1,8.67,8.67,0,0,1,2.7,1.4,45.59,45.59,0,0,1,7.8,7.4l.8,1a44,44,0,0,0,4,4.6,10.42,10.42,0,0,0,4,2.5l.2.1a35.63,35.63,0,0,1,3.6,40.8,1.7,1.7,0,0,0-.7-.1c-2.3-.2-4.4,1.4-6.6,1.1a1.78,1.78,0,0,1-1-.4,1.14,1.14,0,0,1-.3-.8c-1.7-6.7-3.2-13.5-4.4-20.2a24.78,24.78,0,0,0-1.5-5.5,7.28,7.28,0,0,0-4-3.9c-2.7-.9-5.7.6-7.4,2.8s-2.3,5.1-2.8,7.9-.8,5.6-1.9,8.2a4.18,4.18,0,0,1-1.8,2.3,4,4,0,0,1-4.7-1.1,10.35,10.35,0,0,1-2-4.7,14.3,14.3,0,0,0-1.7-4.9c-1.6-2.4-4.5-3.4-7.2-4.1s-5.7-1.1-8-2.8a17.72,17.72,0,0,1-4.4-5.4,20.17,20.17,0,0,1-1.8-3.6,11.17,11.17,0,0,1-1-4.8C652.6,125.7,654.5,122.8,656.7,120.3Z" transform="translate(0.05 0.01)"/><path class="cls-6" d="M715.7,127.6c-1-.3-2-.1-3-.4a10.42,10.42,0,0,1-4-2.5,64.35,64.35,0,0,1-4.8-5.6,42,42,0,0,0-7.8-7.4,6.38,6.38,0,0,0-5.2-1.5,60.33,60.33,0,0,1-10.4.4,60.09,60.09,0,0,0-7.3-.7c-6.3.2-11.7,4.6-15.7,9.5-2,2.5-4,5.4-4.1,8.7-.1,3,1.3,5.8,2.7,8.3a16.61,16.61,0,0,0,4.4,5.4c2.3,1.6,5.2,2.1,8,2.8s5.7,1.7,7.2,4.1a14.3,14.3,0,0,1,1.7,4.9,10.72,10.72,0,0,0,2,4.8c1.2,1.3,3.2,2,4.7,1.1a5,5,0,0,0,1.8-2.3c1.1-2.6,1.4-5.4,1.9-8.2s1.1-5.6,2.8-7.9,4.7-3.7,7.4-2.8a7.28,7.28,0,0,1,4,3.9,26.36,26.36,0,0,1,1.5,5.5c1.3,6.8,2.7,13.6,4.4,20.2,0,.3.2.5.3.8a1.28,1.28,0,0,0,1,.4c2.2.3,4.4-1.3,6.6-1.1,2.8.2,4.8,2.9,7.5,3.3a8.76,8.76,0,0,0,5-1.1,4,4,0,0,0,2.2-2c.8-2.1-2.1-3.9-2.6-6.1s1.4-4.4.7-6.5c-.4-1.2-1.6-2.1-2.3-3.1-2.1-3.2.2-7.8-1.2-11.4-.9-2.5-3.4-4.1-4.8-6.3C719.1,132.3,718.7,128.5,715.7,127.6Z" transform="translate(0.05 0.01)"/><path class="cls-4" d="M616.9,152.9l1.1-.2,27.5-5.2a27.68,27.68,0,0,1-3.1,4.5c-3.7,4.7-10.3,11.2-18.3,9.7C611.9,159.5,616.9,152.9,616.9,152.9Z" transform="translate(0.05 0.01)"/><g class="cls-7"><path d="M728.2,159.7c.4-1.4,1-2.8.5-4.1,0-.1-.1-.2-.1-.3a8.22,8.22,0,0,0-.6,3.8C728.1,159.3,728.1,159.5,728.2,159.7Z" transform="translate(0.05 0.01)"/><path d="M725.6,146.9a18.9,18.9,0,0,0,.1-4.1A18.6,18.6,0,0,0,725.6,146.9Z" transform="translate(0.05 0.01)"/><path d="M653.6,127a4.48,4.48,0,0,0-.1,1.1c-.1,3,1.3,5.8,2.7,8.3a15.42,15.42,0,0,0,4.4,5.4c2.3,1.6,5.2,2.1,8,2.8s5.7,1.7,7.2,4.1a14.3,14.3,0,0,1,1.7,4.9,10.72,10.72,0,0,0,2,4.8c1.2,1.3,3.2,2,4.7,1.1a5,5,0,0,0,1.8-2.3c1.1-2.6,1.4-5.4,1.9-8.2s1.1-5.6,2.8-7.9,4.7-3.7,7.4-2.8a7.28,7.28,0,0,1,4,3.9,26.36,26.36,0,0,1,1.5,5.5c1.3,6.8,2.7,13.6,4.4,20.2,0,.3.2.5.3.8a1.28,1.28,0,0,0,1,.4c2.2.3,4.4-1.3,6.6-1.1,2.8.2,4.8,2.9,7.5,3.3a8,8,0,0,0,5-1.1,4,4,0,0,0,2.2-2,2.64,2.64,0,0,0-.4-2.3,4.63,4.63,0,0,1-1.8,1.3,8,8,0,0,1-5,1.1c-2.7-.4-4.8-3.1-7.5-3.3-2.2-.2-4.4,1.4-6.6,1.1a1.78,1.78,0,0,1-1-.4,1.14,1.14,0,0,1-.3-.8c-1.7-6.7-3.2-13.4-4.4-20.2a24.78,24.78,0,0,0-1.5-5.5,7.28,7.28,0,0,0-4-3.9c-2.7-.9-5.7.6-7.4,2.8s-2.4,5.1-2.8,7.9a32.62,32.62,0,0,1-1.9,8.2,4.18,4.18,0,0,1-1.8,2.3c-1.5.9-3.5.2-4.7-1.1a10.27,10.27,0,0,1-2-4.8,14.3,14.3,0,0,0-1.7-4.9c-1.6-2.4-4.5-3.4-7.2-4.1s-5.7-1.1-8-2.8a17.72,17.72,0,0,1-4.4-5.4A21,21,0,0,1,653.6,127Z" transform="translate(0.05 0.01)"/></g><path class="cls-4" d="M653.4,133.7c.3-.6.7-1.1,1-1.7a35.77,35.77,0,0,1,49.4-11,35.37,35.37,0,0,1,8.2,7.2,35.77,35.77,0,0,1,3.8,5.5c-10.4-.3-37.9-.8-45.3,2.5-4.2,1.9-12.6,7.4-21.5,12.4a37.25,37.25,0,0,1,4.4-14.9Z" transform="translate(0.05 0.01)"/><path class="cls-4" d="M618,152.7l27.5-5.2a27.68,27.68,0,0,1-3.1,4.5c-8.1,4.1-16,7-20.8,5.5C615.8,155.7,616.2,154,618,152.7Z" transform="translate(0.05 0.01)"/><path class="cls-8" d="M638.3,138c0,5.2-15.6,11.8-15.6,11.8s-12.4,3.2-1,6.8,39.7-17.3,48.9-21.4,49.2-2.4,49.2-2.4l-.4-8.6-2,.2-1.2-12.6C708.8,97.5,682.5,99,682.5,99,642.1,105.3,638.3,132.8,638.3,138Z" transform="translate(0.05 0.01)"/><path class="cls-4" d="M709.1,582.2c7.2,1.2,24-15,24-15C729.6,580.5,709.1,582.2,709.1,582.2Z" transform="translate(0.05 0.01)"/><path class="cls-4" d="M731.1,582.3c4,.8,5.5-7.5,5.5-7.5S727.1,581.5,731.1,582.3Z" transform="translate(0.05 0.01)"/><path class="cls-4" d="M730.2,733.5c4-.5-19.8-19-19.8-19S726.1,734,730.2,733.5Z" transform="translate(0.05 0.01)"/><polygon class="cls-10" points="674.75 403.91 601.65 407.71 601.65 334.81 678.65 347.31 674.75 403.91"/><polygon class="cls-11" points="674.75 403.91 601.65 407.71 601.65 334.81 678.65 347.31 674.75 403.91"/><polygon class="cls-10" points="601.65 407.71 514.35 405.11 509.25 341.71 601.65 334.81 601.65 407.71"/><polygon class="cls-4" points="601.65 407.71 514.35 405.11 509.25 341.71 601.65 334.81 601.65 407.71"/><polygon class="cls-10" points="494.15 318.91 509.25 341.71 601.65 334.81 573.25 312.51 494.15 318.91"/><polygon class="cls-10" points="678.65 347.31 601.65 334.81 637.15 314.61 706.55 323.01 678.65 347.31"/><polygon class="cls-10" points="601.65 352.61 678.65 347.31 678.65 443.81 656.95 446.01 641.25 447.61 636.55 448.11 620.85 449.71 584.75 453.41 584.75 353.71 601.65 352.61"/><polygon class="cls-10" points="584.75 353.71 584.75 453.41 552.25 447.21 538.15 444.51 509.25 438.91 509.25 341.71 584.75 353.71"/><polygon class="cls-11" points="584.75 353.71 584.75 453.41 552.25 447.21 538.15 444.51 509.25 438.91 509.25 341.71 584.75 353.71"/><polygon class="cls-10" points="598.55 377.01 584.75 353.71 678.65 347.31 706.55 368.31 598.55 377.01"/><polygon class="cls-12" points="598.55 377.01 584.75 353.71 678.65 347.31 706.55 368.31 598.55 377.01"/><polygon class="cls-10" points="479.35 362.21 560.15 375.71 584.75 353.71 509.25 341.71 479.35 362.21"/><polygon class="cls-12" points="479.35 362.21 560.15 375.71 584.75 353.71 509.25 341.71 479.35 362.21"/><polygon class="cls-12" points="539.05 423.11 552.25 426.41 552.25 447.21 538.15 444.51 539.05 423.11"/><polygon class="cls-12" points="636.55 436.01 636.55 448.11 620.85 449.71 620.85 436.01 636.55 436.01"/><polygon class="cls-12" points="656.95 440.31 656.95 446.01 641.25 447.61 641.25 440.31 656.95 440.31"/><path class="cls-4" d="M658,390.5c3.3-1.2,5.3-1.8,5.3-1.8l7,13-3.6,3.7-26.4,27.5s-35.5,9.5-46.2-4.2C585.1,417.1,640.3,396.7,658,390.5Z" transform="translate(0.05 0.01)"/><path class="cls-3" d="M659,388.5c3.3-1.2,5.3-1.8,5.3-1.8l7,13-3.6,3.7-26.4,27.5s-35.5,9.5-46.2-4.2C586.1,415.1,641.3,394.7,659,388.5Z" transform="translate(0.05 0.01)"/><path class="cls-4" d="M664.4,386.7l7,13-3.6,3.7c-3.6-4.5-7.3-10.7-8.8-14.9C662.4,387.3,664.4,386.7,664.4,386.7Z" transform="translate(0.05 0.01)"/><path class="cls-5" d="M713.1,306.7s2.8,22,3.6,24.2,3.5,6,3.1,11.2-9.6,11.5-9.6,11.5-9,4.2-12.7,10.5-34.6,15.5-36.8,19.2,12.3,26.2,16.4,24.5,38.1-7.2,38.1-7.2,19.8-10,41-22S770,324.8,770,324.8a443.16,443.16,0,0,0,3-54c-.2-28-26.5-38-26.5-38C698.1,228.7,713.1,306.7,713.1,306.7Z" transform="translate(0.05 0.01)"/><path class="cls-4" d="M767.1,342.2c2.8-12.5-32.8-16.5-32.8-16.5C753.6,329.6,767.1,342.2,767.1,342.2Z" transform="translate(0.05 0.01)"/><path class="cls-4" d="M750.8,346.4c3.7-1-16.4-15.8-16.4-15.8S747.1,347.4,750.8,346.4Z" transform="translate(0.05 0.01)"/><path class="cls-4" d="M727.9,346.5c3.2.5-2.5-9.8-2.5-9.8S724.6,345.9,727.9,346.5Z" transform="translate(0.05 0.01)"/><path class="cls-10" d="M362.4,115.2a15.94,15.94,0,0,1,8.9-1s-.1.4-1.5.5-6.1,1.1-6.1,1.1l3.2,1.4c7.5-2.4,11.6-.2,11.6-.2-3.8-.5-10.3.9-10.3.9l4.4,2.6c8.2-2.3,11.9.9,11.9.9-3.2-1.1-10.8-.1-10.8-.1l4,3.3c7.2-1.6,10.3,2,10.3,2-3.5-1.6-9.2-1.1-9.2-1.1.7.2,3.7,4.3,3.7,4.3,5.8.3,6.3,4.1,6.3,4.1a10.37,10.37,0,0,0-5.5-2.8,20.17,20.17,0,0,1,3.1,9.5c-.4-3.6-3.9-9-3.9-9-.9,0-2,8.1-2,8.1-1.8-3.1,1.1-9.1,1.1-9.1-.5-1.3-4.1-4.5-4.1-4.5-2.2.9-2.5,13.1-2.5,13.1-2.5-5.6,1.6-13.9,1.6-13.9l-4.1-3.2c-3.1,4.1-2.4,14.5-2.4,14.5-3-6.8,1.4-15.1,1.4-15.1l-4.5-2.6c-3.2,3.4-2.1,13.3-2.1,13.3-2.9-5.9.9-13.9.9-13.9s-3.1-1.6-3.3-1.6c-1.2-.2-1.4,8.1-1.4,8.1-1.7-3.8.5-8.5.5-8.5l-6.4-2.8c-.1,1,3,4.8,3,4.8,4.2,17.5,14.8,21.9,14.8,21.9h0a8.62,8.62,0,0,0,5.1,2.1,18.5,18.5,0,0,0,4.1-.2c3.8-.7,3.9,1.3,3.9,1.3,4.3-2.1,3.4-6.9,3.4-6.9,4.4-26.7-33.6-24.4-33.6-24.4C355.6,112.8,362.4,115.2,362.4,115.2Z" transform="translate(0.05 0.01)"/><path class="cls-1" d="M246.9,248.6a15.94,15.94,0,0,1,8.9-1s-.1.4-1.5.5-6.1,1.1-6.1,1.1l3.2,1.4c7.5-2.4,11.6-.2,11.6-.2-3.9-.5-10.3.9-10.3.9l4.4,2.6c8.2-2.3,11.9.9,11.9.9-3.2-1.1-10.8-.1-10.8-.1l4,3.3c7.2-1.6,10.3,2,10.3,2-3.5-1.6-9.2-1.1-9.2-1.1.7.2,3.7,4.3,3.7,4.3,5.8.3,6.3,4.1,6.3,4.1a10.37,10.37,0,0,0-5.5-2.8,20.17,20.17,0,0,1,3.1,9.5c-.4-3.6-3.9-9-3.9-9-.9,0-2,8.1-2,8.1-1.8-3.1,1.1-9.1,1.1-9.1-.5-1.3-4.1-4.5-4.1-4.5-2.2.9-2.5,13.1-2.5,13.1-2.5-5.6,1.6-13.9,1.6-13.9l-4.1-3.2c-3.1,4.1-2.4,14.5-2.4,14.5-3-6.8,1.4-15.1,1.4-15.1l-4.5-2.6c-3.2,3.4-2.1,13.4-2.1,13.4-2.9-5.9.9-13.9.9-13.9s-3.1-1.6-3.3-1.6c-1.2-.2-1.4,8.1-1.4,8.1-1.7-3.9.5-8.5.5-8.5l-6.4-2.7c-.1,1,3,4.8,3,4.8,4.2,17.5,14.9,21.9,14.9,21.9h0a9.31,9.31,0,0,0,5,2.1,18.5,18.5,0,0,0,4.1-.2c3.8-.7,3.9,1.3,3.9,1.3,4.3-2.1,3.4-6.9,3.4-6.9,4.4-26.7-33.6-24.4-33.6-24.4C240.2,246.1,246.9,248.6,246.9,248.6Z" transform="translate(0.05 0.01)"/><path class="cls-1" d="M472.9,215.1a16.53,16.53,0,0,1-2.5-8.6s.4,0,.8,1.4,2.1,5.9,2.1,5.9l.9-3.3c-3.6-7-2.2-11.4-2.2-11.4.2,3.9,2.6,10,2.6,10l1.8-4.8c-3.7-7.7-1.2-11.9-1.2-11.9-.6,3.4,1.7,10.7,1.7,10.7l2.6-4.6c-2.8-6.9.2-10.5.2-10.5-.9,3.7.5,9.3.5,9.3.1-.8,3.6-4.4,3.6-4.4-.6-5.8,3-7,3-7a11.17,11.17,0,0,0-1.9,5.9,20.18,20.18,0,0,1,8.9-4.7c-3.6,1-8.2,5.4-8.2,5.4.2.9,8.3.6,8.3.6-2.8,2.3-9.2.5-9.2.5-1.2.8-3.7,4.8-3.7,4.8,1.3,2,13.3.2,13.3.2-5.1,3.4-13.9.8-13.9.8l-2.5,4.6c4.5,2.4,14.7-.1,14.7-.1-6.2,4.1-15.2,1.2-15.2,1.2l-1.8,4.9c3.9,2.5,13.5-.2,13.5-.2-5.3,3.8-13.9,1.5-13.9,1.5s-1,3.3-1,3.6c0,1.2,8.2,0,8.2,0-3.5,2.4-8.4,1-8.4,1l-1.6,6.8c1,0,4.2-3.7,4.2-3.7,16.5-7.1,19-18.4,19-18.4h0a8.33,8.33,0,0,0,1.2-5.3,13.67,13.67,0,0,0-.9-4c-1.3-3.7.6-4.1.6-4.1-2.8-3.8-7.3-2.2-7.3-2.2-27,.1-18.3,37.2-18.3,37.2C471.5,222.1,472.9,215.1,472.9,215.1Z" transform="translate(0.05 0.01)"/><path class="cls-1" d="M561.5,233.5a16,16,0,0,1,6.9-5.7s.1.4-.9,1.2-4.5,4.3-4.5,4.3l3.4-.6c5-6.1,9.6-6.5,9.6-6.5-3.5,1.7-8.1,6.4-8.1,6.4l5.1-.2c5.6-6.4,10.4-5.8,10.4-5.8-3.3.8-9.1,5.8-9.1,5.8l5.2.5c5.2-5.3,9.7-4,9.7-4-3.8.6-8.3,4.2-8.3,4.2.8-.2,5.5,1.6,5.5,1.6,5-2.9,7.6,0,7.6,0a10.54,10.54,0,0,0-6.1.6,19.16,19.16,0,0,1,7.8,6.3c-2.3-2.9-8.3-5.4-8.3-5.4-.7.5,2.8,7.9,2.8,7.9-3.2-1.7-4.1-8.2-4.1-8.2-1.2-.8-5.9-1.4-5.9-1.4-1.3,2,5.1,12.3,5.1,12.3-5.2-3.3-6.3-12.4-6.3-12.4l-5.2-.4c-.4,5.1,6,13.4,6,13.4-6.2-4-7.1-13.4-7.1-13.4l-5.2.3c-.8,4.6,5.6,12.3,5.6,12.3-5.6-3.3-6.9-12.1-6.9-12.1s-3.4.4-3.7.5c-1.1.5,3.2,7.6,3.2,7.6-3.5-2.3-4.3-7.3-4.3-7.3l-6.9,1.2c.4.9,5.1,2.4,5.1,2.4C572.7,251.2,584,249,584,249h0a8.49,8.49,0,0,0,5.4-1,19.92,19.92,0,0,0,3.3-2.4c2.9-2.7,4-1.1,4-1.1,2.4-4.1-.9-7.6-.9-7.6-10.9-24.7-41.4-1.9-41.4-1.9S561.5,233.5,561.5,233.5Z" transform="translate(0.05 0.01)"/><path class="cls-1" d="M459.9,21.4a16,16,0,0,1,6.9-5.7s.1.4-.9,1.2-4.5,4.2-4.5,4.2l3.4-.5c5-6.1,9.6-6.5,9.6-6.5-3.5,1.7-8.1,6.4-8.1,6.4l5.1-.2c5.6-6.4,10.4-5.8,10.4-5.8-3.3.9-9.1,5.9-9.1,5.9l5.2.5c5.1-5.3,9.7-4,9.7-4-3.8.6-8.3,4.2-8.3,4.2.8-.2,5.5,1.5,5.5,1.5,5-2.9,7.6,0,7.6,0a10.54,10.54,0,0,0-6.1.6,19.16,19.16,0,0,1,7.8,6.3c-2.3-2.9-8.3-5.4-8.3-5.4-.7.5,2.8,7.9,2.8,7.9-3.2-1.7-4.1-8.2-4.1-8.2-1.2-.8-5.9-1.5-5.9-1.5-1.3,2,5.1,12.3,5.1,12.3-5.2-3.3-6.3-12.5-6.3-12.5l-5.2-.4c-.4,5.1,6,13.4,6,13.4-6.2-4-7.1-13.4-7.1-13.4l-5.2.3c-.8,4.6,5.6,12.3,5.6,12.3-5.6-3.3-6.9-12.1-6.9-12.1s-3.4.4-3.7.5c-1.1.5,3.3,7.6,3.3,7.6-3.6-2.3-4.3-7.3-4.3-7.3L453,24.2c.4.9,5.1,2.4,5.1,2.4,13.1,12.3,24.4,10.1,24.4,10.1h0a8.49,8.49,0,0,0,5.4-1,19.92,19.92,0,0,0,3.3-2.4c2.9-2.7,4-1.1,4-1.1,2.4-4.1-.9-7.6-.9-7.6-10.9-24.7-41.4-1.9-41.4-1.9C452.9,23,459.9,21.4,459.9,21.4Z" transform="translate(0.05 0.01)"/><path class="cls-1" d="M341.3,46.6a16.43,16.43,0,0,1,2.4-8.6s.3.1-.1,1.4-1.3,6.1-1.3,6.1l2.5-2.4c.6-7.9,4.2-10.8,4.2-10.8-1.9,3.4-3.1,9.9-3.1,9.9l4.1-3.1c.9-8.4,5.3-10.7,5.3-10.7-2.3,2.6-4.2,10-4.2,10l4.6-2.5c1.2-7.3,5.7-8.8,5.7-8.8-2.8,2.7-4.5,8.2-4.5,8.2.5-.6,5.4-1.8,5.4-1.8,2.5-5.2,6.2-4.3,6.2-4.3a10.67,10.67,0,0,0-4.7,4,19,19,0,0,1,10,.8c-3.5-1-9.8.2-9.8.2-.3.8,6.8,4.9,6.8,4.9-3.5.4-8-4.4-8-4.4-1.4,0-5.7,2.2-5.7,2.2,0,2.4,11.2,7.2,11.2,7.2-6.2.2-12.2-6.7-12.2-6.7L351.6,40c2.5,4.4,12.5,7.7,12.5,7.7-7.4.2-13.5-7-13.5-7l-4.1,3.2c2,4.3,11.6,7,11.6,7-6.5.4-12.6-6.1-12.6-6.1s-2.6,2.3-2.7,2.5c-.6,1.1,7,4.4,7,4.4-4.2.2-7.7-3.6-7.7-3.6l-5,4.9c.9.5,5.5-.9,5.5-.9,17.8,2.7,25.9-5.5,25.9-5.5h0a8.66,8.66,0,0,0,3.9-3.9,18.16,18.16,0,0,0,1.4-3.9c.8-3.8,2.7-3.1,2.7-3.1-.4-4.7-5.1-5.7-5.1-5.7-23-14.2-35.2,21.9-35.2,21.9C336.5,51.8,341.3,46.6,341.3,46.6Z" transform="translate(0.05 0.01)"/><path class="cls-1" d="M422.4,55.9a15.79,15.79,0,0,1,8.8-1.4s0,.4-1.4.6-6.1,1.4-6.1,1.4l3.2,1.2c7.4-2.8,11.6-.8,11.6-.8-3.8-.3-10.2,1.4-10.2,1.4l4.5,2.4c8.1-2.8,11.9.2,11.9.2-3.2-1-10.8.5-10.8.5l4.2,3.1c7.1-2,10.4,1.4,10.4,1.4-3.6-1.4-9.3-.6-9.3-.6.8.2,4,4.1,4,4.1,5.8,0,6.5,3.8,6.5,3.8a10.74,10.74,0,0,0-5.6-2.6,20.09,20.09,0,0,1,3.6,9.4c-.6-3.7-4.4-8.8-4.4-8.8-.9.1-1.5,8.2-1.5,8.2-1.9-3.1.6-9.2.6-9.2-.6-1.2-4.3-4.2-4.3-4.2-2.1,1-1.8,13.2-1.8,13.2-2.8-5.5.9-13.9.9-13.9l-4.2-3c-2.9,4.2-1.6,14.6-1.6,14.6-3.3-6.6.7-15.2.7-15.2l-4.7-2.4c-3,3.6-1.4,13.4-1.4,13.4-3.1-5.8.2-14,.2-14s-3.2-1.4-3.4-1.4c-1.2-.1-1,8.2-1,8.2-2-3.8,0-8.5,0-8.5l-6.5-2.4c-.1,1,3.2,4.6,3.2,4.6,5.1,17.3,16,21.1,16,21.1h0a8.22,8.22,0,0,0,5.2,1.8,18.4,18.4,0,0,0,4.1-.4c3.8-.9,4,1.1,4,1.1,4.1-2.3,3-7,3-7C453.9,48.9,416,53.1,416,53.1,415.7,53.7,422.4,55.9,422.4,55.9Z" transform="translate(0.05 0.01)"/><path class="cls-1" d="M90.8,350.1a15.79,15.79,0,0,1,8.8-1.4s0,.4-1.4.6-6.1,1.4-6.1,1.4l3.2,1.3c7.4-2.8,11.6-.8,11.6-.8-3.9-.3-10.3,1.4-10.3,1.4l4.5,2.4c8.1-2.7,11.9.3,11.9.3-3.3-1-10.8.4-10.8.4l4.2,3.1c7.2-2,10.4,1.4,10.4,1.4-3.6-1.4-9.3-.6-9.3-.6.8.2,4,4.1,4,4.1,5.8,0,6.5,3.8,6.5,3.8a9.89,9.89,0,0,0-5.6-2.5,20.09,20.09,0,0,1,3.6,9.4c-.6-3.6-4.4-8.8-4.4-8.8-.9.1-1.5,8.2-1.5,8.2-1.9-3,.6-9.1.6-9.1-.6-1.2-4.3-4.2-4.3-4.2-2.1,1-1.8,13.2-1.8,13.2-2.8-5.5.9-13.9.9-13.9l-4.2-3c-2.9,4.2-1.6,14.6-1.6,14.6-3.3-6.6.7-15.2.7-15.2l-4.7-2.4c-3,3.6-1.4,13.4-1.4,13.4-3.1-5.8.2-14,.2-14s-3.2-1.4-3.4-1.4c-1.2-.1-1,8.2-1,8.2-2-3.8,0-8.5,0-8.5l-6.5-2.4c-.1,1,3.2,4.6,3.2,4.6,5.1,17.2,16,21.1,16,21.1h0a8.22,8.22,0,0,0,5.2,1.8,18.4,18.4,0,0,0,4.1-.4c3.8-.9,4,1.1,4,1.1,4.1-2.3,3-7,3-7,3.1-26.9-34.8-22.6-34.8-22.6C84.1,347.9,90.8,350.1,90.8,350.1Z" transform="translate(0.05 0.01)"/><path class="cls-1" d="M32.9,385.5a15.79,15.79,0,0,1,8.8-1.4s-.1.4-1.4.6-6.1,1.4-6.1,1.4l3.2,1.2c7.4-2.8,11.6-.8,11.6-.8-3.9-.3-10.3,1.4-10.3,1.4l4.5,2.4c8.1-2.8,11.9.2,11.9.2-3.3-1-10.8.4-10.8.4l4.2,3.1c7.2-2,10.4,1.4,10.4,1.4-3.6-1.4-9.3-.6-9.3-.6.8.2,4,4.1,4,4.1,5.8,0,6.5,3.8,6.5,3.8a9.89,9.89,0,0,0-5.6-2.5,18.94,18.94,0,0,1,3.5,9.4c-.5-3.6-4.4-8.8-4.4-8.8-.9.1-1.5,8.2-1.5,8.2-1.9-3,.6-9.1.6-9.1-.6-1.2-4.3-4.2-4.3-4.2-2.1,1-1.8,13.2-1.8,13.2-2.8-5.5.9-13.9.9-13.9l-4.2-3c-2.9,4.2-1.6,14.6-1.6,14.6-3.3-6.6.7-15.2.7-15.2L37.7,389c-3,3.6-1.4,13.4-1.4,13.4-3.1-5.8.2-14,.2-14s-3.2-1.4-3.4-1.4c-1.2-.1-1,8.2-1,8.2-2-3.8,0-8.5,0-8.5l-6.5-2.4c-.1,1,3.2,4.6,3.2,4.6,5,17.2,15.9,21.1,15.9,21.1h0a8.79,8.79,0,0,0,5.1,1.8,18.4,18.4,0,0,0,4.1-.4c3.8-.9,4,1.1,4,1.1,4.1-2.3,3-7,3-7,3.1-26.8-34.8-22.6-34.8-22.6C26.2,383.3,32.9,385.5,32.9,385.5Z" transform="translate(0.05 0.01)"/><path class="cls-1" d="M161.9,83.6a16,16,0,0,1,6.9-5.7s.2.3-.9,1.2-4.5,4.3-4.5,4.3l3.4-.6c5-6.1,9.6-6.5,9.6-6.5-3.5,1.7-8.1,6.4-8.1,6.4l5.1-.2c5.6-6.4,10.4-5.8,10.4-5.8-3.3.8-9.1,5.8-9.1,5.8l5.2.5c5.2-5.3,9.7-4,9.7-4-3.8.6-8.3,4.2-8.3,4.2.8-.2,5.5,1.6,5.5,1.6,5-2.9,7.6,0,7.6,0a10.54,10.54,0,0,0-6.1.6,19.16,19.16,0,0,1,7.8,6.3c-2.3-2.9-8.3-5.4-8.3-5.4-.7.5,2.8,7.9,2.8,7.9-3.2-1.7-4.1-8.2-4.1-8.2-1.2-.8-5.9-1.4-5.9-1.4-1.3,2,5.1,12.3,5.1,12.3-5.3-3.3-6.3-12.4-6.3-12.4l-5.2-.4c-.4,5.1,6,13.4,6,13.4-6.2-4-7.1-13.4-7.1-13.4l-5.2.3c-.8,4.6,5.6,12.3,5.6,12.3-5.6-3.3-6.9-12.2-6.9-12.2s-3.4.4-3.7.5c-1.1.5,3.2,7.6,3.2,7.6-3.6-2.3-4.3-7.3-4.3-7.3l-6.9,1.2c.4.9,5.1,2.4,5.1,2.4C173.1,101.2,184.4,99,184.4,99h0a8.49,8.49,0,0,0,5.4-1,19.92,19.92,0,0,0,3.3-2.4c2.9-2.7,4-1.1,4-1.1,2.4-4.1-.9-7.6-.9-7.6C185.3,62.2,154.8,85,154.8,85,155,85.2,161.9,83.6,161.9,83.6Z" transform="translate(0.05 0.01)"/><path class="cls-1" d="M136.2,244.5a15.54,15.54,0,0,1,2-8.7s.3.2,0,1.6-1,6.1-1,6.1l2.4-2.5c.3-7.9,3.7-11,3.7-11-1.8,3.4-2.6,10-2.6,10l4-3.3c.6-8.5,4.8-10.9,4.8-10.9-2.2,2.6-3.7,10.1-3.7,10.1l4.5-2.7c.9-7.4,5.3-9.1,5.3-9.1-2.6,2.8-4.1,8.4-4.1,8.4.5-.7,5.3-2.1,5.3-2.1,2.2-5.4,6-4.6,6-4.6a10.72,10.72,0,0,0-4.5,4.2,18.88,18.88,0,0,1,10,.3c-3.6-.9-9.8.7-9.8.7-.3.8,7,4.6,7,4.6-3.5.6-8.2-4.1-8.2-4.1-1.4.1-5.6,2.4-5.6,2.4.1,2.4,11.5,6.7,11.5,6.7-6.2.5-12.5-6.1-12.5-6.1l-4.4,2.8c2.8,4.3,12.9,7.1,12.9,7.1-7.4.5-13.8-6.4-13.8-6.4l-4,3.4c2.1,4.1,11.9,6.4,11.9,6.4-6.5.7-12.8-5.5-12.8-5.5s-2.5,2.4-2.6,2.6c-.6,1.1,7.2,4.1,7.2,4.1-4.2.3-7.8-3.3-7.8-3.3l-4.7,5.1c.9.4,5.5-1.2,5.5-1.2,17.9,1.9,25.6-6.7,25.6-6.7h0a9.21,9.21,0,0,0,3.7-4.1,14.19,14.19,0,0,0,1.2-4c.7-3.8,2.5-3.2,2.5-3.2-.6-4.7-5.3-5.5-5.3-5.5-23.7-13.2-34.2,23.5-34.2,23.5C131.6,249.9,136.2,244.5,136.2,244.5Z" transform="translate(0.05 0.01)"/><path class="cls-1" d="M371.9,328.6a15.62,15.62,0,0,1,4.4-7.8s.3.3-.4,1.5-2.7,5.6-2.7,5.6l3-1.7c2.5-7.5,6.7-9.5,6.7-9.5-2.7,2.8-5.3,8.9-5.3,8.9l4.7-2c2.9-8,7.7-9.1,7.7-9.1-2.8,1.9-6.4,8.7-6.4,8.7l5-1.3c2.9-6.8,7.6-7.2,7.6-7.2-3.3,1.9-6.3,6.9-6.3,6.9.7-.5,5.7-.5,5.7-.5,3.6-4.5,7-2.7,7-2.7a10.37,10.37,0,0,0-5.5,2.8,18.81,18.81,0,0,1,9.5,3.1c-3.2-1.9-9.6-2.1-9.6-2.1-.5.7,5.4,6.4,5.4,6.4-3.6-.4-6.8-6.2-6.8-6.2-1.3-.3-6,.7-6,.7-.5,2.3,9.1,9.7,9.1,9.7-6.1-1.2-10.3-9.4-10.3-9.4l-5,1.4c1.4,4.9,10.3,10.4,10.3,10.4-7.3-1.5-11.4-10-11.4-10l-4.8,2.1c.9,4.5,9.6,9.5,9.6,9.5-6.4-1.1-10.8-8.9-10.8-8.9a35.84,35.84,0,0,0-3.2,1.8c-.9.9,5.7,5.9,5.7,5.9-4.1-.9-6.6-5.4-6.6-5.4l-6,3.6c.7.7,5.6.4,5.6.4,16.6,6.9,26.5.8,26.5.8h0a8.36,8.36,0,0,0,4.7-2.9,21.16,21.16,0,0,0,2.3-3.5c1.7-3.5,3.3-2.4,3.3-2.4.8-4.8-3.6-6.8-3.6-6.8-19-19.3-39.4,12.9-39.4,12.9C365.9,332.5,371.9,328.6,371.9,328.6Z" transform="translate(0.05 0.01)"/><path class="cls-10" d="M237.4,164.1a16,16,0,0,1,4.2-7.9s.3.3-.4,1.5-2.5,5.7-2.5,5.7l2.9-1.8c2.3-7.6,6.4-9.7,6.4-9.7-2.5,2.9-5,9-5,9l4.7-2.2c2.7-8.1,7.4-9.4,7.4-9.4-2.8,2-6.2,8.9-6.2,8.9l5-1.5c2.7-6.9,7.4-7.4,7.4-7.4-3.2,2.1-6.1,7.1-6.1,7.1.7-.5,5.7-.7,5.7-.7,3.5-4.6,7-2.9,7-2.9a11,11,0,0,0-5.4,2.9,19.14,19.14,0,0,1,9.6,2.8c-3.2-1.8-9.7-1.8-9.7-1.8-.5.8,5.6,6.2,5.6,6.2-3.6-.3-6.9-6-6.9-6-1.4-.3-6,.9-6,.9-.5,2.3,9.4,9.4,9.4,9.4-6.1-1.1-10.6-9.1-10.6-9.1l-4.9,1.6c1.6,4.9,10.7,10.1,10.7,10.1-7.3-1.3-11.7-9.7-11.7-9.7l-4.7,2.2c1,4.5,9.9,9.2,9.9,9.2-6.4-.9-11-8.6-11-8.6s-3,1.7-3.2,1.9c-.9.9,5.9,5.7,5.9,5.7-4.2-.7-6.8-5.1-6.8-5.1l-5.9,3.8c.7.7,5.6.2,5.6.2,16.8,6.4,26.5,0,26.5,0h0a8.84,8.84,0,0,0,4.6-3,18.6,18.6,0,0,0,2.2-3.5c1.6-3.6,3.3-2.5,3.3-2.5.6-4.7-3.8-6.6-3.8-6.6-19.6-18.7-39,14.1-39,14.1C231.7,168.1,237.4,164.1,237.4,164.1Z" transform="translate(0.05 0.01)"/><path class="cls-10" d="M357.5,230.3a15.92,15.92,0,0,1-.7-8.9s.4.1.5,1.5.9,6.2.9,6.2l1.5-3.1c-2.1-7.6.2-11.6.2-11.6-.6,3.8.5,10.3.5,10.3l2.8-4.3c-2-8.3,1.3-11.9,1.3-11.9-1.2,3.2-.5,10.8-.5,10.8l3.4-3.9c-1.4-7.3,2.3-10.2,2.3-10.2-1.7,3.4-1.4,9.2-1.4,9.2.3-.8,4.4-3.6,4.4-3.6.5-5.8,4.3-6.2,4.3-6.2a11.13,11.13,0,0,0-3,5.4,20.26,20.26,0,0,1,9.7-2.8c-3.7.2-9.2,3.6-9.2,3.6,0,.9,8,2.2,8,2.2-3.2,1.6-9.1-1.4-9.1-1.4-1.3.5-4.6,4-4.6,4,.9,2.2,13,2.9,13,2.9-5.7,2.3-13.8-2.1-13.8-2.1l-3.3,4c4,3.3,14.4,2.9,14.4,2.9-6.9,2.8-15.1-1.9-15.1-1.9l-2.8,4.4c3.3,3.3,13.3,2.5,13.3,2.5-6,2.7-13.9-1.4-13.9-1.4a33.36,33.36,0,0,0-1.7,3.3c-.2,1.2,8.1,1.7,8.1,1.7-3.9,1.6-8.5-.8-8.5-.8l-3,6.3c1,.2,4.9-2.8,4.9-2.8,17.6-3.6,22.4-14.1,22.4-14.1h0a7.9,7.9,0,0,0,2.2-5,18.6,18.6,0,0,0-.1-4.1c-.6-3.9,1.4-3.9,1.4-3.9-2-4.3-6.7-3.6-6.7-3.6-26.5-5.4-25.5,32.7-25.5,32.7C354.8,236.9,357.5,230.3,357.5,230.3Z" transform="translate(0.05 0.01)"/><ellipse class="cls-1" cx="310.65" cy="716.31" rx="26.9" ry="4.5"/><ellipse class="cls-1" cx="408.75" cy="785.41" rx="26.9" ry="4.5"/><ellipse class="cls-1" cx="916.45" cy="750.01" rx="26.9" ry="4.5"/><ellipse class="cls-1" cx="204.55" cy="780.81" rx="26.9" ry="4.5"/><ellipse class="cls-10" cx="176.45" cy="723.11" rx="40.2" ry="6.8"/><path class="cls-10" d="M168.8,718.2h14.7a6.89,6.89,0,0,1,.3-.8,14.07,14.07,0,0,1,4.8-4.6c2.4-1.6,5.1-3.1,6.8-5.4s2.2-5.9.2-8c-1.6-1.7-4.2-1.9-6.5-1.9a7.92,7.92,0,0,0-4,1c-2,1.2-2.6,3.9-2.7,6.2s.4,4.7-.1,7c0-6.4-1.5-13.4-6.7-17.1-1.6-1.2-4.1-1.8-5.5-.3a4,4,0,0,0-.9,2,10.58,10.58,0,0,0,3.2,9.8c-2.6.4-4.9-1.6-6.9-3.3s-4.6-3.4-7.1-2.5c-2.2.8-3.2,3.6-2.7,5.9a12.05,12.05,0,0,0,3.8,5.8A45.66,45.66,0,0,0,168.8,718.2Z" transform="translate(0.05 0.01)"/><path class="cls-13" d="M928.9,744c-4.6,2.8-27.6,5.7-44.9,5.5s4.6-21.1,5.7-26.4,20.1-1.4,24.8,1.9,20,3.8,20,3.8S933.5,741.2,928.9,744Z" transform="translate(0.05 0.01)"/><path class="cls-14" d="M877.3,745.1c-.1,2.6,1.6,4.5,6.6,4.5,17.3.1,40.3-2.7,44.9-5.5s5.6-15.2,5.6-15.2H934c-.5,3.5-1.9,11.2-5.4,13.4-4.6,2.8-27.6,5.7-44.9,5.5C879.9,747.7,878,746.7,877.3,745.1Z" transform="translate(0.05 0.01)"/><path class="cls-10" d="M587.8,291.3a45.45,45.45,0,0,1,.2-7.4,22,22,0,0,1,4.3-10.9,52.72,52.72,0,0,1,4.4-5.2l3.6-3.9a27.87,27.87,0,0,0,3-3.8,18.7,18.7,0,0,0,2-4,12.43,12.43,0,0,0,.6-4.7c-.1-3.7-1.2-6.6-3.1-8.5s-4.7-2.8-8.3-2.6a15.58,15.58,0,0,0-4.2.8,9.46,9.46,0,0,0-3.6,2.1,9.76,9.76,0,0,0-2.5,3.5,12.22,12.22,0,0,0-.8,5l-14.6.6a23,23,0,0,1,1.7-10,20.3,20.3,0,0,1,5.2-7.4,23.15,23.15,0,0,1,8-4.7,35.38,35.38,0,0,1,10.2-1.9,36.43,36.43,0,0,1,10.9,1.1,22.82,22.82,0,0,1,8.2,4.2,18.69,18.69,0,0,1,5.3,7.1,27.25,27.25,0,0,1,2.1,9.7,20.7,20.7,0,0,1-1,7.4,25.9,25.9,0,0,1-3.1,6.5,44.39,44.39,0,0,1-4.6,5.9q-2.55,2.85-5.4,5.7a14.23,14.23,0,0,0-4.1,6.7,24.56,24.56,0,0,0-.8,8.1Zm17.6,15.9a8,8,0,0,1-1.3,5.8,9.49,9.49,0,0,1-12,2,7.93,7.93,0,0,1-3-5.1,6.93,6.93,0,0,1,.1-3.2,7.29,7.29,0,0,1,3.5-4.9,9.84,9.84,0,0,1,6.9-1.1,7.58,7.58,0,0,1,4.9,3.5,13.16,13.16,0,0,1,.9,3Z" transform="translate(0.05 0.01)"/></svg>
